<svg width="28" height="28" viewBox="0 0 24 24" fill="none" xmlns="http://www.w3.org/2000/svg">
<g id="Icon / No /Path">
<path id="Path" fill-rule="evenodd" clip-rule="evenodd" d="M8.52046 23C8.07077 23 7.79462 22.5793 7.89042 22.1991L9.77621 14.7156H3.64969C3.39031 14.7156 3.15578 14.5625 3.05309 14.3263C2.9504 14.0899 2.99925 13.8157 3.17739 13.6286L15.007 1.20203C15.2098 0.988905 15.5321 0.938417 15.7912 1.07923C16.0504 1.21999 16.1812 1.51652 16.1095 1.80088L14.2238 9.2844H20.3503C20.6097 9.2844 20.8442 9.43745 20.9469 9.67378C21.0496 9.91011 21.0007 10.1844 20.8226 10.3715L8.99302 22.798C8.86699 22.9304 8.69487 23 8.52046 23Z" fill="#FF7074"/>
</g>
</svg>
