<svg width="28" height="28" viewBox="0 0 22 20" fill="none" xmlns="http://www.w3.org/2000/svg">
<g id="filter icon">
<path d="M21.1219 10.4022C21.1219 12.0157 19.9962 13.3664 18.4954 13.7266V18.3193C18.4954 18.7545 18.1427 19.1072 17.7074 19.1072C17.2722 19.1072 16.9195 18.7545 16.9195 18.3193V13.7266C15.4186 13.3664 14.293 12.0157 14.293 10.4022C14.293 8.7888 15.4186 7.43803 16.9195 7.07782V1.50963C16.9195 1.07438 17.2722 0.72168 17.7074 0.72168C18.1427 0.72168 18.4954 1.07438 18.4954 1.50963V7.07782C19.9962 7.43803 21.1219 8.7888 21.1219 10.4022ZM17.7074 8.56367C16.6943 8.56367 15.8689 9.38915 15.8689 10.4022C15.8689 11.4153 16.6943 12.2408 17.7074 12.2408C18.7205 12.2408 19.546 11.4153 19.546 10.4022C19.546 9.38915 18.7205 8.56367 17.7074 8.56367Z" fill="#ffffff"/>
<path d="M11.6673 10.2371V18.3193C11.6673 18.7545 11.3146 19.1072 10.8793 19.1072C10.4441 19.1072 10.0913 18.7545 10.0913 18.3193V10.2371C8.59049 9.87693 7.46484 8.52615 7.46484 6.91273C7.46484 5.2993 8.59049 3.94853 10.0913 3.58832V1.50963C10.0913 1.07438 10.4441 0.72168 10.8793 0.72168C11.3146 0.72168 11.6673 1.07438 11.6673 1.50963V3.58832C13.1681 3.94853 14.2938 5.2993 14.2938 6.91273C14.2938 8.52615 13.1681 9.87693 11.6673 10.2371ZM10.8793 5.07417C9.86622 5.07417 9.04075 5.89965 9.04075 6.91273C9.04075 7.92581 9.86622 8.75128 10.8793 8.75128C11.8924 8.75128 12.7179 7.92581 12.7179 6.91273C12.7179 5.89965 11.8924 5.07417 10.8793 5.07417Z" fill="#ffffff"/>
<path d="M7.46563 13.3664C7.46563 14.9799 6.33999 16.3306 4.83913 16.6908V18.3193C4.83913 18.7545 4.48642 19.1072 4.05118 19.1072C3.61593 19.1072 3.26322 18.7545 3.26322 18.3193V16.6908C1.76236 16.3306 0.636719 14.9799 0.636719 13.3664C0.636719 11.753 1.76236 10.4022 3.26322 10.042V1.50963C3.26322 1.07438 3.61593 0.72168 4.05118 0.72168C4.48642 0.72168 4.83913 1.07438 4.83913 1.50963V10.042C6.33999 10.4022 7.46563 11.753 7.46563 13.3664ZM4.05118 11.5279C3.03809 11.5279 2.21262 12.3533 2.21262 13.3664C2.21262 14.3795 3.03809 15.205 4.05118 15.205C5.06426 15.205 5.88973 14.3795 5.88973 13.3664C5.88973 12.3533 5.06426 11.5279 4.05118 11.5279Z" fill="#ffffff"/>
</g>
</svg>
