<svg width="16" height="16" viewBox="0 0 16 16" fill="none" xmlns="http://www.w3.org/2000/svg">
<g id="google">
<path id="Icon/google" fill-rule="evenodd" clip-rule="evenodd" d="M2.79989 13.2191C-0.0648282 10.4199 -0.0648283 5.52217 2.91903 2.7231C5.0674 0.623955 8.17106 0.157176 10.9161 1.20683L11.9902 1.7905L13.1841 2.60669L11.2739 4.47268L10.5582 4.00606C8.8874 2.95641 6.50009 3.18972 4.94842 4.70599C3.15781 6.45557 3.03867 9.60437 4.94842 11.4702C6.73887 13.336 9.96151 13.336 11.6325 11.4702C12.11 11.0036 12.5876 10.3037 12.7066 9.60437V9.37106H8.40984V7.03844H15.2129L15.3327 7.62148V9.254C15.2129 10.7703 14.6163 12.2865 13.5421 13.336C10.6774 16.0182 5.66476 16.0182 2.79989 13.2191Z" fill="white"/>
</g>
</svg>
