<svg width="78" height="119" viewBox="0 0 78 119" fill="none" xmlns="http://www.w3.org/2000/svg">
<g filter="url(#filter0_d_380_4285)">
<path d="M28.2009 81.5208C25.385 79.2376 22.6452 79.3137 19.8293 80.988C17.0895 82.5862 16.1001 85.7827 17.0895 88.9791C18.0028 91.795 19.9815 93.5454 22.4169 94.9914C26.146 97.2745 30.2557 98.4161 34.5937 98.9488C35.0503 99.0249 35.6592 98.7966 35.8875 98.4922C38.8556 94.5347 41.367 90.349 42.1281 85.326C42.6608 81.5969 41.8237 78.4005 38.6273 76.1934C34.7459 73.5297 29.038 75.9651 28.277 80.6836C28.277 80.8358 28.2009 81.0641 28.2009 81.5208Z" fill="white"/>
<path d="M52.7821 50.8514C52.0211 48.4921 50.3468 47.5788 48.1397 47.5027C45.9327 47.4266 44.2584 48.9487 43.6495 51.1558C43.1168 53.1345 43.6495 54.8849 44.5628 56.5592C45.9327 59.2229 47.8353 61.3539 50.1946 63.2565C50.4229 63.4087 50.8795 63.5609 51.1078 63.4848C54.3042 62.2671 57.2723 60.745 59.4794 58.0813C61.1537 56.1787 61.8386 53.9717 60.7732 51.5363C59.4794 48.5682 55.2936 47.9594 53.1627 50.3947C53.0866 50.4708 52.9343 50.623 52.7821 50.8514Z" fill="white"/>
<path d="M25.7609 37.761C24.8476 36.6195 23.7822 36.4672 22.5645 36.9239C21.3468 37.3044 20.738 38.5221 20.8902 39.8159C21.0424 40.9574 21.6512 41.7946 22.4884 42.5557C23.7822 43.6972 25.3043 44.5344 26.9025 45.0671C27.0547 45.1432 27.3591 45.0671 27.4352 44.991C28.8812 43.6972 30.2511 42.2512 30.936 40.3486C31.4688 38.9787 31.3927 37.6088 30.3272 36.5433C29.0334 35.1735 26.5981 35.7062 25.9131 37.4566C25.837 37.4566 25.837 37.6088 25.7609 37.761Z" fill="white"/>
<path d="M46.6892 22.1581C46.3848 21.2448 45.776 20.8643 44.9388 20.7882C44.1016 20.7121 43.4167 21.3209 43.1123 22.1581C42.884 22.9191 43.1123 23.604 43.4167 24.289C43.8733 25.3545 44.6344 26.1916 45.5476 26.9527C45.6238 27.0288 45.776 27.1049 45.9282 27.0288C47.1459 26.6483 48.3635 26.1155 49.2768 25.05C49.9617 24.289 50.2662 23.4518 49.8856 22.4625C49.429 21.2448 47.7547 21.0165 46.9175 21.9297C46.8414 22.0058 46.7653 22.0819 46.6892 22.1581Z" fill="white"/>
<path d="M33.5227 14.2846C33.7635 14.9529 33.342 15.6819 32.6797 15.925L32.198 16.0465L29.9101 16.7755C29.7896 16.8362 29.6692 16.7755 29.6692 16.654L28.9467 14.2846L28.8263 13.9809C28.5854 13.3126 29.0069 12.5836 29.6692 12.3406C30.3315 12.0976 31.054 12.5228 31.2949 13.1911L31.4153 13.6164L31.897 13.4949C32.5593 13.2519 33.2818 13.6164 33.5227 14.2846Z" fill="white"/>
</g>
<defs>
<filter id="filter0_d_380_4285" x="0.714844" y="0.271484" width="76.5703" height="118.692" filterUnits="userSpaceOnUse" color-interpolation-filters="sRGB">
<feFlood flood-opacity="0" result="BackgroundImageFix"/>
<feColorMatrix in="SourceAlpha" type="matrix" values="0 0 0 0 0 0 0 0 0 0 0 0 0 0 0 0 0 0 127 0" result="hardAlpha"/>
<feOffset dy="4"/>
<feGaussianBlur stdDeviation="8"/>
<feColorMatrix type="matrix" values="0 0 0 0 0 0 0 0 0 0 0 0 0 0 0 0 0 0 0.07 0"/>
<feBlend mode="normal" in2="BackgroundImageFix" result="effect1_dropShadow_380_4285"/>
<feBlend mode="normal" in="SourceGraphic" in2="effect1_dropShadow_380_4285" result="shape"/>
</filter>
</defs>
</svg>
