<svg width="28" height="28" viewBox="0 0 24 22" fill="none" xmlns="http://www.w3.org/2000/svg">
<path id="like icon" d="M21.1392 2.10253C19.8986 0.759952 18.2114 0 16.3754 0C14.986 0 13.7454 0.455971 12.6289 1.31725C12.2319 1.62123 11.8598 2.00121 11.5124 2.40651C11.165 2.00121 10.7929 1.62123 10.3959 1.31725C9.2794 0.455971 8.01402 0 6.6246 0C4.78857 0 3.1014 0.759952 1.88565 2.10253C0.669903 3.44511 0 5.269 0 7.24487C0 9.27141 0.719525 11.0953 2.30744 13.0458C3.67206 14.7177 5.60734 16.3896 7.84035 18.3655L7.93959 18.4415C8.68393 19.0748 9.5027 19.8094 10.3463 20.5694C10.6688 20.848 11.0906 21.0253 11.5124 21.0253C11.9342 21.0253 12.356 20.8733 12.6785 20.5694C13.5717 19.7841 14.4401 19.0241 15.2093 18.3655C17.4423 16.415 19.3776 14.7431 20.7422 13.0712C22.3053 11.146 23.0496 9.29674 23.0496 7.2702C23 5.269 22.3301 3.44511 21.1392 2.10253ZM20.7918 7.24487C20.7918 8.73944 20.246 10.082 19.0054 11.6019C17.7648 13.1218 15.904 14.7431 13.7454 16.6429L13.6214 16.7189C12.9763 17.2762 12.2567 17.9095 11.4876 18.5935C10.7433 17.9349 9.99892 17.3016 9.35383 16.7189L9.25458 16.6429C7.09601 14.7684 5.23517 13.1472 3.99461 11.6019C2.75405 10.082 2.2082 8.73944 2.2082 7.24487C2.2082 5.85163 2.6548 4.55971 3.49838 3.64777C4.31715 2.76116 5.43366 2.27986 6.6246 2.27986C7.49299 2.27986 8.31176 2.5585 9.00647 3.1158C9.65156 3.62244 10.123 4.28106 10.3959 4.73703C10.8673 5.52232 12.1327 5.52232 12.6041 4.73703C12.877 4.28106 13.3236 3.62244 13.9935 3.1158C15.6807 1.77322 18.1122 2.10253 19.5016 3.64777C20.3204 4.55971 20.7918 5.85163 20.7918 7.24487Z" fill="#ffffff"/>
</svg>
