<svg width="24" height="24" viewBox="0 0 24 24" fill="none" xmlns="http://www.w3.org/2000/svg">
<g id="message icon">
<path d="M20.2598 3.45C15.1598 -1.45 8.75981 -0.55 4.75981 2.55C0.759808 5.55 -1.74019 11.25 1.45981 17.25L0.0598076 22.25C-0.0401924 22.55 -0.0401924 22.95 0.259808 23.25C0.459808 23.55 0.859808 23.75 1.25981 23.75C1.35981 23.75 1.45981 23.75 2.55981 23.45C3.35981 23.25 4.55981 22.95 6.65981 22.35C8.65981 23.35 10.2598 23.45 11.3598 23.55C11.5598 23.55 11.6598 23.55 11.8598 23.55C16.6598 23.55 20.7598 20.85 22.5598 16.35C24.5598 11.85 23.6598 6.95 20.2598 3.45ZM3.85981 17.35C3.95981 17.05 3.85981 16.75 3.75981 16.45C0.959808 11.65 2.85981 7.05 6.05981 4.55C9.25981 2.05 14.2598 1.15 18.3598 4.95C18.3598 5.05 18.4598 5.05 18.5598 5.15C22.0598 9.05 21.5598 12.85 20.5598 15.25C19.0598 18.95 15.4598 21.25 11.5598 21.05C9.45981 20.95 8.45981 20.45 7.75981 20.15C7.35981 19.95 7.05981 19.85 6.75981 19.85C6.65981 19.85 6.55981 19.85 6.55981 19.85L2.95981 20.75L3.85981 17.35Z" fill="#FE877C"/>
<path d="M8.06016 13.1501C8.83335 13.1501 9.46016 12.5233 9.46016 11.7501C9.46016 10.9769 8.83335 10.3501 8.06016 10.3501C7.28696 10.3501 6.66016 10.9769 6.66016 11.7501C6.66016 12.5233 7.28696 13.1501 8.06016 13.1501Z" fill="#FE877C"/>
<path d="M11.8602 13.1501C12.6334 13.1501 13.2602 12.5233 13.2602 11.7501C13.2602 10.9769 12.6334 10.3501 11.8602 10.3501C11.087 10.3501 10.4602 10.9769 10.4602 11.7501C10.4602 12.5233 11.087 13.1501 11.8602 13.1501Z" fill="#FE877C"/>
<path d="M15.6602 13.1501C16.4334 13.1501 17.0602 12.5233 17.0602 11.7501C17.0602 10.9769 16.4334 10.3501 15.6602 10.3501C14.887 10.3501 14.2602 10.9769 14.2602 11.7501C14.2602 12.5233 14.887 13.1501 15.6602 13.1501Z" fill="#FE877C"/>
</g>
</svg>
