<svg width="56" height="88" viewBox="0 0 56 88" fill="none" xmlns="http://www.w3.org/2000/svg">
<path d="M28.2884 79.3384C30.339 79.3384 32.0235 77.6349 32.0235 75.5611C32.0235 73.4872 30.339 71.7837 28.2884 71.7837C26.2378 71.7837 24.5535 73.4872 24.5535 75.5611C24.5535 77.6349 26.2378 79.3384 28.2884 79.3384Z" fill="black"/>
<path d="M43.8509 10.6419H43.8144C42.606 10.6419 41.6174 11.6418 41.6174 12.8639C41.6174 14.086 42.6425 15.0859 43.8509 15.0859C45.0593 15.0859 46.0479 14.086 46.0479 12.8639C46.0479 11.6418 45.0959 10.6419 43.8509 10.6419Z" fill="black"/>
<path d="M32.7192 10.6419H23.8578C22.6495 10.6419 21.6608 11.6418 21.6608 12.8639C21.6608 14.086 22.6495 15.0859 23.8578 15.0859H32.7192C33.9276 15.0859 34.9162 14.086 34.9162 12.8639C34.9162 11.6418 33.9276 10.6419 32.7192 10.6419Z" fill="black"/>
<path d="M43.7778 0.568848H12.7993C6.06165 0.568848 0.605713 6.08679 0.605713 12.9009V75.5981C0.605713 82.3752 6.06165 87.9301 12.7993 87.9301H43.7778C50.5154 87.9301 55.9713 82.4122 55.9713 75.5981V12.9009C55.9713 6.08679 50.4788 0.568848 43.7778 0.568848ZM49.307 69.969V75.5611C49.307 78.6348 46.817 81.1531 43.7778 81.1531H12.7993C9.76003 81.1531 7.27 78.6348 7.27 75.5611V69.969H49.307ZM49.307 12.9009V63.266H7.27V12.9009C7.27 9.82714 9.76003 7.30889 12.7993 7.30889H43.7778C46.817 7.30889 49.307 9.79011 49.307 12.9009Z" fill="black"/>
</svg>
