<svg width="21" height="20" viewBox="0 0 21 20" fill="none" xmlns="http://www.w3.org/2000/svg">
<path id="retry icon" d="M20.3772 18.1866C20.3436 17.7244 19.957 17.3631 19.4865 17.3547C19.226 17.3463 18.9571 17.3463 18.6966 17.3463C18.5454 17.3463 18.3857 17.3463 18.2345 17.3463H17.5623L17.6295 17.2791L17.9236 16.9178C17.9572 16.8758 17.9824 16.8506 18.0076 16.8169C20.0242 14.3466 20.7385 11.5317 20.1251 8.46468C19.5873 5.75902 17.8816 3.39787 15.4616 1.99462C13.0164 0.582969 10.1091 0.280473 7.47064 1.16275C2.82396 2.71725 0.0594798 7.34713 0.899748 12.1619C1.39551 15.044 2.95 17.3043 5.52962 18.9008C5.7733 19.0521 6.02538 19.0857 6.28587 19.01C6.66399 18.8924 6.88246 18.6319 6.92447 18.2454C6.96648 17.8589 6.80683 17.5648 6.42031 17.3211C4.97505 16.422 3.86589 15.17 3.21048 13.6996C2.55508 12.2291 2.37022 10.5822 2.67271 8.91843C3.04243 6.85137 4.22721 5.03639 6.01698 3.818C7.79835 2.59121 9.92423 2.13747 11.9829 2.53239C14.1592 2.95253 16.0246 4.17091 17.2262 5.97749C18.4277 7.77566 18.8395 9.95196 18.3941 12.1199C18.0916 13.5903 17.411 14.8759 16.3103 16.0271L15.9742 16.3884L15.9489 15.8927C15.9489 15.8422 15.9405 15.8002 15.9405 15.7582C15.9405 15.6826 15.9321 15.6238 15.9321 15.5649C15.9321 15.3885 15.9321 15.2204 15.9321 15.044C15.9321 14.6827 15.9321 14.313 15.9321 13.9516C15.9321 13.7668 15.9069 13.6239 15.8649 13.4979C15.7473 13.1282 15.4028 12.9013 15.0163 12.9013C14.9658 12.9013 14.9154 12.9013 14.8566 12.9097C14.4281 12.9769 14.1172 13.355 14.1172 13.8088C14.1088 15.2456 14.1172 16.6909 14.1172 18.0942C14.1172 18.8084 14.4701 19.1613 15.1843 19.1613C16.4111 19.1613 17.6547 19.1613 18.8647 19.1613H19.3688C19.4613 19.1613 19.5453 19.1529 19.6209 19.1445C20.0915 19.0773 20.4192 18.6655 20.3772 18.1866Z" fill='#FE877C'/>
</svg>
