<svg width="89" height="90" viewBox="0 0 89 90" fill="none" xmlns="http://www.w3.org/2000/svg">
<path d="M86.4947 2.49479L85.8356 3.16139L86.4947 2.45776C84.8836 0.865333 82.5766 0.383902 80.4894 1.19863L4.17849 31.3436C1.76173 32.3065 0.333666 34.7137 0.626606 37.306C0.919547 39.9353 2.89688 41.9351 5.4601 42.2684L42.1509 47.2679L47.0942 84.3752C47.4238 86.9675 49.4012 88.9673 52.001 89.2635C52.2207 89.3006 52.477 89.3006 52.6967 89.3006C55.0036 89.3006 57.0542 87.8933 57.8964 85.6713L87.7031 8.5312C88.5819 6.42031 88.1059 4.08722 86.4947 2.49479ZM73.6419 10.8643L43.8353 41.0463C42.1509 40.7871 35.5963 39.8983 9.37816 36.3061L73.6419 10.8643ZM78.1826 15.4564L53.0629 80.4497C49.511 53.9709 48.5955 47.342 48.3758 45.6385L78.1826 15.4564Z" fill="black"/>
</svg>
